<svg width="18" height="18" viewBox="0 0 18 18" fill="none" xmlns="http://www.w3.org/2000/svg">
<path d="M9.46894 17.2501H1.21508C0.689612 17.2501 0.263916 16.8423 0.263916 16.3394V1.66079C0.263916 1.15776 0.689679 0.750122 1.21508 0.750122H16.5464C17.0717 0.750122 17.4975 1.15776 17.4975 1.66079V16.3394C17.4975 16.8424 17.0716 17.2501 16.5464 17.2501H12.1549V10.8604H14.3949L14.7304 8.37024H12.1549V6.78041C12.1549 6.05944 12.364 5.56813 13.4438 5.56813L14.821 5.56755V3.34031C14.5828 3.30996 13.7653 3.24216 12.8141 3.24216C10.8284 3.24216 9.46894 4.40265 9.46894 6.53379V8.37024H7.22311V10.8604H9.46894V17.2501Z" fill="white"/>
</svg>
