<svg width="24" height="17" viewBox="0 0 24 17" fill="none" xmlns="http://www.w3.org/2000/svg">
<path fill-rule="evenodd" clip-rule="evenodd" d="M12.1404 0.00012207C9.09357 0.00012207 8.71152 0.009907 7.51494 0.0512734C6.32085 0.0925381 5.50533 0.236241 4.79175 0.446379C4.05402 0.663569 3.42839 0.954212 2.80467 1.42675C2.18099 1.89933 1.79739 2.37335 1.51074 2.9323C1.23339 3.47297 1.04373 4.09086 0.989264 4.99559C0.934667 5.90221 0.921753 6.19167 0.921753 8.50015C0.921753 10.8086 0.934667 11.0981 0.989264 12.0047C1.04373 12.9094 1.23339 13.5273 1.51074 14.068C1.79739 14.6269 2.18099 15.1009 2.80467 15.5735C3.42839 16.0461 4.05402 16.3367 4.79175 16.5539C5.50533 16.764 6.32085 16.9077 7.51494 16.949C8.71152 16.9904 9.09357 17.0001 12.1404 17.0001C15.1871 17.0001 15.5692 16.9904 16.7658 16.949C17.9599 16.9077 18.7754 16.764 19.489 16.5539C20.2267 16.3367 20.8523 16.0461 21.476 15.5735C22.0997 15.1009 22.4833 14.6269 22.77 14.068C23.0473 13.5273 23.237 12.9094 23.2915 12.0047C23.346 11.0981 23.359 10.8086 23.359 8.50015C23.359 6.19167 23.346 5.90221 23.2915 4.99559C23.237 4.09086 23.0473 3.47297 22.77 2.9323C22.4833 2.37335 22.0997 1.89933 21.476 1.42675C20.8523 0.954212 20.2267 0.663569 19.489 0.446379C18.7754 0.236241 17.9599 0.0925381 16.7658 0.0512734C15.5692 0.009907 15.1871 0.00012207 12.1404 0.00012207ZM12.1404 1.53166C15.1358 1.53166 15.4907 1.54033 16.6736 1.58123C17.7674 1.61902 18.3614 1.75749 18.7568 1.87389C19.2804 2.02809 19.6541 2.21228 20.0467 2.50974C20.4393 2.80716 20.6824 3.09032 20.8859 3.48708C21.0395 3.78659 21.2223 4.23666 21.2722 5.0654C21.3261 5.9617 21.3376 6.23054 21.3376 8.50015C21.3376 10.7697 21.3261 11.0386 21.2722 11.9349C21.2223 12.7636 21.0395 13.2137 20.8859 13.5132C20.6824 13.91 20.4393 14.1931 20.0467 14.4905C19.6541 14.788 19.2804 14.9722 18.7568 15.1264C18.3614 15.2428 17.7674 15.3813 16.6736 15.419C15.4909 15.4599 15.1361 15.4686 12.1404 15.4686C9.14464 15.4686 8.7899 15.4599 7.60707 15.419C6.51327 15.3813 5.91925 15.2428 5.52394 15.1264C5.00029 14.9722 4.62657 14.788 4.23402 14.4905C3.84147 14.1931 3.59832 13.91 3.39481 13.5132C3.24117 13.2137 3.05841 12.7636 3.00853 11.9349C2.95456 11.0386 2.94312 10.7697 2.94312 8.50015C2.94312 6.23054 2.95456 5.9617 3.00853 5.0654C3.05841 4.23666 3.24117 3.78659 3.39481 3.48708C3.59832 3.09032 3.84142 2.80716 4.23402 2.50974C4.62657 2.21228 5.00029 2.02809 5.52394 1.87389C5.91925 1.75749 6.51327 1.61902 7.60707 1.58123C8.79003 1.54033 9.14486 1.53166 12.1404 1.53166ZM6.37927 8.5035C6.37927 6.09281 8.9585 4.1386 12.1402 4.1386C15.3219 4.1386 17.9011 6.09281 17.9011 8.5035C17.9011 10.9142 15.3219 12.8684 12.1402 12.8684C8.9585 12.8684 6.37927 10.9142 6.37927 8.5035ZM12.1403 11.3335C10.075 11.3335 8.40076 10.065 8.40076 8.5002C8.40076 6.93537 10.075 5.66685 12.1403 5.66685C14.2056 5.66685 15.8798 6.93537 15.8798 8.5002C15.8798 10.065 14.2056 11.3335 12.1403 11.3335ZM18.1288 4.98284C18.8723 4.98284 19.4751 4.52619 19.4751 3.96285C19.4751 3.39951 18.8723 2.94283 18.1288 2.94283C17.3853 2.94283 16.7826 3.39951 16.7826 3.96285C16.7826 4.52619 17.3853 4.98284 18.1288 4.98284Z" fill="white"/>
</svg>
