<svg width="14" height="20" viewBox="0 0 14 20" fill="none" xmlns="http://www.w3.org/2000/svg">
<path fill-rule="evenodd" clip-rule="evenodd" d="M0 7.00025C0 3.13025 3.13 0.000244141 7 0.000244141C10.87 0.000244141 14 3.13025 14 7.00025C14 11.1703 9.58 16.9203 7.77 19.1103C7.37 19.5903 6.64 19.5903 6.24 19.1103C4.42 16.9203 0 11.1703 0 7.00025ZM4.5 7.00026C4.5 8.38026 5.62 9.50026 7 9.50026C8.38 9.50026 9.5 8.38026 9.5 7.00026C9.5 5.62025 8.38 4.50025 7 4.50025C5.62 4.50025 4.5 5.62025 4.5 7.00026Z" fill="white"/>
</svg>
