<svg width="58" height="53" viewBox="0 0 58 53" fill="none" xmlns="http://www.w3.org/2000/svg">
<path d="M18.6269 6.56943L16.0896 7.58054L11.5224 13.1417L10 18.9556L10.5075 21.2306L14.0597 23L17.1045 21.7361L20.9104 18.7028L22.9403 14.4055L24.7164 10.3611L24.4627 8.84443L18.6269 6.56943Z" fill="black"/>
<path d="M38.6716 9.09721L39.9403 10.8667L42.4776 12.1305L44 12.6361V10.3611L43.4925 9.09721L41.7164 8.59165H39.9403L38.6716 9.09721Z" fill="black"/>
<path d="M16.3433 6.82229C17.1496 5.87964 17.4742 5.80007 17.8657 6.31674M18.6269 6.56943L16.0896 7.58054L11.5224 13.1417L10 18.9556L10.5075 21.2306L14.0597 23L17.1045 21.7361L20.9104 18.7028L22.9403 14.4055L24.7164 10.3611L24.4627 8.84443L18.6269 6.56943ZM38.6716 9.09721L39.9403 10.8667L42.4776 12.1305L44 12.6361V10.3611L43.4925 9.09721L41.7164 8.59165H39.9403L38.6716 9.09721Z" stroke="black" stroke-width="2"/>
<path d="M24.6985 9.19818L24.4412 8.57072L17.2353 6.31187C16.8955 5.83902 16.605 5.82793 15.6912 6.81384L14.6618 7.81777L14.1471 9.07269L13.1176 10.3276L12.3456 11.3315L11.8309 12.3355L11.0588 13.3394L10.2868 14.3434L10.0294 15.0963L9.25735 16.3512L9 17.6061V18.8611L9.25735 20.116L9.77206 21.1199L10.8015 22.1239L13.1176 23.1278L15.1765 22.6258L19.5515 19.865L24.9559 9.82564L24.6985 9.19818ZM24.6985 9.19818L37.8235 9.07269M37.8235 9.07269C39.3553 11.3424 40.7681 12.1735 44 13.0885V11.3316L43.7426 10.3276L42.8419 9.07269L40.6544 8.31976L37.8235 9.07269ZM26.5 13.0885C27.2249 10.9283 28.1084 11.1672 29.8456 12.0845M35.5074 26.1396C35.2569 24.9629 35.646 24.8402 36.7941 25.1357M41.9412 24.6337C42.194 23.5681 42.4006 23.2504 43.4853 24.3827M36.2794 28.3985C38.5956 30.9083 40.6334 30.5136 39.8824 26.8926C42.019 30.1146 44 29.6534 44 26.8926" stroke="black"/>
<path d="M23.0175 36.4257C22.5332 27.3052 32.2377 30.9642 31.9955 38" stroke="#C60000" stroke-width="2"/>
<path d="M32.1293 37.6338V36.1098M39.9453 35.8558C40.678 31.7918 33.839 31.7919 32.3735 37.6338M27 41.19C27 41.19 29.6868 45 29.931 45C30.1753 45 37.0143 39.6659 37.0143 39.6659" stroke="#C60000" stroke-width="2"/>
<path d="M17.2483 6L25.0735 8.48735H37.4424C42.8763 7.17873 43.8362 8.38029 44.258 11.7209L44.0055 16.6956M44.0055 16.6956L42.491 19.183L42.0871 19.4317L38.4521 21.6703L31.8891 21.9191M44.0055 16.6956C51.5711 30.1814 53.7499 39.5149 46.7822 41.0717H39.9667C33.656 39.3305 34.4133 35.3508 42.0871 37.3407M31.8891 21.9191L27.3454 19.4317M31.8891 21.9191L31.3842 31.1223M18.0056 36.3457C31.1318 35.102 32.1415 43.3103 18.0056 41.8179C10.9677 40.4831 9.00869 36.8919 13.2095 23.032M16.2386 6.49747C-1.68369 22.4165 18.5104 32.6147 25.0735 9.4823" stroke="black" stroke-width="2"/>
</svg>
