<svg width="25" height="24" viewBox="0 0 25 24" fill="none" xmlns="http://www.w3.org/2000/svg">
<path fill-rule="evenodd" clip-rule="evenodd" d="M20.0217 15.261L17.4817 14.971C16.8717 14.901 16.2717 15.111 15.8417 15.541L14.0017 17.381C11.1717 15.941 8.85167 13.631 7.41167 10.791L9.26167 8.941C9.69167 8.511 9.90167 7.911 9.83167 7.30099L9.54167 4.78099C9.42167 3.77099 8.57167 3.01099 7.55167 3.01099H5.82167C4.69167 3.01099 3.75167 3.95099 3.82167 5.08099C4.35167 13.621 11.1817 20.441 19.7117 20.971C20.8417 21.041 21.7817 20.101 21.7817 18.971V17.241C21.7917 16.231 21.0317 15.381 20.0217 15.261Z" fill="white"/>
</svg>
