<svg width="45" height="38" viewBox="0 0 45 38" fill="none" xmlns="http://www.w3.org/2000/svg">
<ellipse cx="22.6972" cy="19.0898" rx="22.2333" ry="18.7265" fill="#0081FE"/>
<path d="M13.9339 19.3452C13.2424 19.6508 13.2711 20.0983 13.9961 20.3399L16.1441 21.0558C16.8697 21.2984 17.9676 21.166 18.5826 20.7618L27.9104 14.5659C28.5236 14.1597 28.5894 14.2196 28.0569 14.6998L20.6828 21.3478C20.1485 21.8265 20.3063 22.4145 21.0342 22.6516L21.2858 22.7341C22.0138 22.9712 23.2002 23.3694 23.9234 23.6171L26.3057 24.4341C27.0295 24.6818 27.8028 24.3898 28.0084 23.7555L31.6393 12.5146C31.8443 11.8803 31.4462 11.611 30.7547 11.916L13.9339 19.3452Z" fill="white"/>
<path d="M19.8288 26.7043C19.7864 26.8115 21.2979 24.8608 21.2979 24.8608C21.7252 24.3111 21.4825 23.6552 20.7606 23.4065L19.1122 22.8381C18.3902 22.5895 18.0441 22.8814 18.343 23.489C18.343 23.489 19.8724 26.594 19.8288 26.7043Z" fill="white"/>
</svg>
